HIERARCHY
ROOT hip
{
	OFFSET 0.000000 0.000000 0.000000 
	CHANNELS 6 Xposition Yposition Zposition Xrotation Zrotation Yrotation
	JOINT abdomen
	{
		OFFSET 0.000000 3.402643 0.000000 
		CHANNELS 3 Xrotation Zrotation Yrotation
		JOINT chest
		{
			OFFSET 0.000000 8.438565 -0.680529 
			CHANNELS 3 Xrotation Zrotation Yrotation
			JOINT neck
			{
				OFFSET 0.000000 10.207942 -0.272212 
				CHANNELS 3 Xrotation Zrotation Yrotation
				JOINT head
				{
					OFFSET 0.000000 3.130431 0.000000 
					CHANNELS 3 Xrotation Zrotation Yrotation
					End Site
					{
						OFFSET 0.000000 3.130435 0.000000 
					}
				}
			}
			JOINT lCollar
			{
				OFFSET 3.470700 6.669187 -0.816635 
				CHANNELS 3 Yrotation Zrotation Xrotation
				JOINT lShldr
				{
					OFFSET 3.198488 0.000000 0.000000 
					CHANNELS 3 Zrotation Yrotation Xrotation
					JOINT lForeArm
					{
						OFFSET 10.139888 0.000000 0.000000 
						CHANNELS 3 Yrotation Zrotation Xrotation
						JOINT lHand
						{
							OFFSET 8.370511 0.000000 0.000000 
							CHANNELS 3 Zrotation Yrotation Xrotation
							End Site
							{
								OFFSET 4.083176 0.000000 0.000000 
							}
						}
					}
				}
			}
			JOINT rCollar
			{
				OFFSET -3.470700 6.669187 -0.816635 
				CHANNELS 3 Yrotation Zrotation Xrotation
				JOINT rShldr
				{
					OFFSET -3.198488 0.000000 0.000000 
					CHANNELS 3 Zrotation Yrotation Xrotation
					JOINT rForeArm
					{
						OFFSET -10.139888 0.000000 0.000000 
						CHANNELS 3 Yrotation Zrotation Xrotation
						JOINT rHand
						{
							OFFSET -8.370511 0.000000 0.000000 
							CHANNELS 3 Zrotation Yrotation Xrotation
							End Site
							{
								OFFSET -4.083176 0.000000 0.000000 
							}
						}
					}
				}
			}
		}
	}
	JOINT lThigh
	{
		OFFSET 5.308129 -1.633274 1.361059 
		CHANNELS 3 Xrotation Zrotation Yrotation
		JOINT lShin
		{
			OFFSET -2.041588 -20.007561 0.000000 
			CHANNELS 3 Xrotation Zrotation Yrotation
			JOINT lFoot
			{
				OFFSET 0.000000 -19.190928 -1.224953 
				CHANNELS 3 Xrotation Yrotation Zrotation
				End Site
				{
					OFFSET 0.000000 -2.449906 4.627600 
				}
			}
		}
	}
	JOINT rThigh
	{
		OFFSET -5.308129 -1.633274 1.361059 
		CHANNELS 3 Xrotation Zrotation Yrotation
		JOINT rShin
		{
			OFFSET 2.041588 -20.007561 0.000000 
			CHANNELS 3 Xrotation Zrotation Yrotation
			JOINT rFoot
			{
				OFFSET 0.000000 -19.190928 -1.224953 
				CHANNELS 3 Xrotation Yrotation Zrotation
				End Site
				{
					OFFSET 0.000000 -2.449906 4.627600 
				}
			}
		}
	}
}
MOTION
Frames: 13
Frame Time: 0.033333
-0.207363 48.731216 3.640585 -0.566614 -1.552659 1.968473 0.000000 0.000000 0.000000 -4.699745 1.858967 -1.266000 4.189383 1.302960 -0.706756 5.175775 0.116978 0.032056 -0.674956 10.174566 -3.714864 -5.367321 6.108054 -15.692348 0.193378 -4.480629 21.933281 0.171611 -5.502352 -3.381486 -1.380692 -8.808229 -3.736756 3.375371 -13.314950 -4.459452 -0.431036 3.857621 12.386519 0.135292 4.141140 -3.379903 6.969594 10.924745 11.049714 13.079662 -1.269589 -1.596382 -11.979073 -0.307522 2.738289 12.574469 -6.033659 -9.142718 0.627918 2.787988 -28.687119 -5.449453 0.091262 -2.023784 
-0.208997 48.734478 3.644083 -0.742417 -1.425662 1.698154 0.000000 0.000000 0.000000 -4.543289 1.810703 -1.100817 4.275242 1.285250 -0.601342 5.214839 0.097486 0.003993 -0.559339 10.359035 -3.588944 -5.663308 6.223282 -15.776513 0.198153 -4.290406 22.446911 -0.568247 -5.614424 -3.316568 -1.295208 -8.826211 -3.606101 3.373770 -13.178453 -4.400352 -0.426882 3.947591 12.202785 0.364148 3.919849 -3.375152 7.029324 10.779321 11.071707 13.410187 -1.386638 -1.117412 -12.451487 -0.400818 3.511004 12.680858 -6.170370 -9.285180 0.618723 2.777052 -28.599823 -5.522037 0.106687 -2.336674 
-0.201195 48.728439 3.606669 -0.654511 -1.464748 1.813601 0.000000 0.000000 0.000000 -4.602063 1.868959 -1.214787 4.305569 1.339867 -0.676829 5.097645 0.146210 -0.008958 -0.569299 10.439581 -3.638203 -5.751523 6.271794 -15.761818 0.195921 -4.339470 21.999125 -0.130564 -5.706101 -3.353646 -1.441245 -8.766786 -3.658952 3.461588 -13.012240 -4.384633 -0.425157 4.027554 12.175624 0.243524 3.638828 -3.382910 6.596502 10.844277 10.998450 13.834073 -1.357750 -0.882350 -12.808285 -0.454216 3.901184 12.618447 -6.139275 -9.221148 0.659765 2.745469 -28.499546 -5.471698 0.085458 -1.962619 
-0.195910 48.730453 3.645001 -1.025620 -1.210744 1.340028 0.000000 0.000000 0.000000 -4.337882 1.713829 -0.872113 4.565506 1.275015 -0.475415 4.785142 0.155903 -0.059233 -0.306469 10.456338 -3.413019 -5.754728 6.172522 -15.986768 0.211224 -4.163394 22.893604 -0.452484 -5.744598 -3.324144 -1.088555 -8.832391 -3.428889 3.775194 -13.224668 -4.773976 -0.444920 3.786074 12.590096 0.229662 3.872795 -3.383538 7.867457 10.476068 11.083969 12.572175 -1.437609 -1.030946 -11.800679 -0.290748 2.778087 12.916514 -6.415479 -9.416410 0.753235 2.662369 -27.995388 -5.553062 0.090948 -1.918152 
-0.173634 48.737877 3.623166 -0.976781 -1.210762 1.505012 0.000000 0.000000 0.000000 -4.377121 1.781900 -0.966384 4.498605 1.246222 -0.620759 4.941402 0.077965 -0.112412 -0.465081 10.427828 -3.443617 -5.757025 6.288996 -16.085241 0.223191 -4.093013 23.370857 -0.349751 -6.482049 -3.323244 -1.252686 -8.909707 -3.469116 3.960920 -13.175525 -4.695268 -0.425042 3.796136 12.579598 -0.139871 3.821573 -3.406195 7.653515 10.495614 11.051042 12.735855 -1.454814 -1.079942 -11.798532 -0.307330 2.856697 12.889487 -6.445003 -9.471521 0.708257 2.735029 -28.164442 -5.473956 0.081905 -1.910996 
-0.158535 48.739765 3.601848 -0.879058 -1.064328 1.588593 0.000000 0.000000 0.000000 -4.494201 1.713468 -1.091629 4.461914 1.096887 -0.656920 5.117153 0.253436 -0.113096 -0.496497 10.256721 -3.553755 -5.606258 6.340272 -15.843754 0.211117 -4.224256 23.304890 -0.167161 -6.246310 -3.342777 -1.176197 -9.146990 -3.569509 4.190612 -13.252325 -4.836058 -0.424973 3.723683 12.489829 0.421624 3.942795 -3.371551 7.039826 10.331472 10.834137 13.476255 -1.416067 -0.567841 -12.656919 -0.452237 4.173266 12.782380 -6.572522 -9.505793 0.755061 2.681495 -28.229710 -5.492083 0.079647 -1.731251 
-0.144441 48.734478 3.561505 -0.732633 -1.376841 1.980490 0.000000 0.000000 0.000000 -4.612043 1.946806 -1.348333 4.240121 1.306982 -0.986188 5.751953 -0.009754 -0.165531 -0.646442 10.651017 -3.648144 -5.949844 6.220877 -15.918996 0.207447 -4.269502 22.173872 0.412510 -6.241331 -3.388635 -1.482404 -8.714268 -3.662234 3.955756 -13.194105 -4.950943 -0.446501 3.618895 13.210476 0.394038 3.911825 -3.373354 6.799982 10.696625 10.935989 13.462124 -1.350144 -1.135836 -12.393444 -0.402890 3.498539 12.649987 -6.247378 -9.339352 0.628354 2.777669 -28.794479 -5.452954 0.078370 -2.114509 
-0.122795 48.750591 3.547194 -0.830311 -1.357279 2.021616 0.000000 0.000000 0.000000 -4.602379 1.985769 -1.370663 4.379136 1.215614 -1.000331 5.419914 0.126757 -0.270722 -0.837225 10.555150 -3.615922 -5.949059 6.338694 -15.831948 0.207000 -4.290952 22.145088 0.711421 -6.145225 -3.415609 -1.447490 -8.902501 -3.644210 4.100575 -13.262688 -4.761078 -0.446889 3.741394 12.676750 0.515892 4.007027 -3.366219 6.990398 10.692187 10.979741 13.278102 -1.387080 -1.510360 -11.733706 -0.306409 2.758920 12.775225 -6.286163 -9.384769 0.586782 2.790137 -28.640888 -5.321137 0.074044 -1.998595 
-0.117007 48.735241 3.576240 -1.279526 -1.083714 1.430450 0.000000 0.000000 0.000000 -4.230566 1.782243 -1.010657 4.392155 1.208588 -0.743521 5.556640 -0.039007 -0.193236 -0.414365 10.471818 -3.313329 -5.873103 6.093287 -16.060558 0.203641 -4.092050 23.379244 0.109895 -6.112552 -3.369796 -1.226472 -8.892821 -3.332293 4.145333 -13.173427 -5.077386 -0.441513 3.613449 12.839405 0.592895 3.698503 -3.361311 7.947862 10.341355 11.096539 12.709191 -1.513730 -1.093730 -11.691319 -0.283568 2.813522 13.120728 -6.619281 -9.660651 0.684603 2.731322 -27.980339 -5.527617 0.092115 -2.034521 
-0.104422 48.730209 3.552028 -1.269742 -1.044665 1.351275 0.000000 0.000000 0.000000 -4.289211 1.791846 -0.993677 4.335310 1.037059 -0.797937 5.888637 0.292640 -0.404502 -0.397887 10.315045 -3.364562 -5.736251 6.084028 -16.082785 0.203842 -4.093453 23.506147 0.271865 -6.190994 -3.379292 -1.295239 -9.035095 -3.382729 4.121280 -13.047356 -4.870854 -0.423285 3.767108 12.422652 0.789995 3.680688 -3.349259 7.973458 10.278790 11.059178 12.621681 -1.552789 -0.936809 -11.702097 -0.315102 2.830423 13.077269 -6.696096 -9.715394 0.698744 2.734619 -27.940493 -5.532773 0.076581 -1.903023 
-0.095613 48.731464 3.529779 -1.289285 -1.064184 1.371601 0.000000 0.000000 0.000000 -4.338203 1.850157 -1.019163 4.375919 0.976741 -0.792200 5.888637 0.292640 -0.424033 -0.507597 10.263605 -3.405025 -5.867051 6.121067 -16.275072 0.197852 -3.889172 23.784519 0.251691 -6.182409 -3.378107 -1.320911 -9.355873 -3.441171 4.382617 -13.035569 -5.147245 -0.437375 3.570555 13.198948 1.354055 3.419998 -3.323866 8.031528 10.298514 11.083344 12.511472 -1.535134 -1.046539 -11.597252 -0.266630 2.690974 13.059390 -6.687145 -9.693868 0.743661 2.740208 -27.927767 -5.535094 0.078115 -2.051315 
-0.081768 48.729191 3.503942 -1.279510 -1.044662 1.322156 0.000000 0.000000 0.000000 -4.318638 1.840466 -0.998267 4.355506 1.021113 -0.831426 5.839838 0.117051 -0.425572 -0.549023 10.275264 -3.373974 -5.853445 6.142359 -16.040380 0.202927 -4.100929 23.096437 0.823030 -6.040704 -3.422648 -1.307284 -9.220099 -3.413384 4.046913 -13.019408 -4.581932 -0.440400 3.863195 13.060848 1.989203 3.280424 -3.293881 7.782602 10.263533 11.021862 12.896090 -1.523482 -0.792299 -12.020481 -0.361098 3.244596 13.006490 -6.718977 -9.689706 0.718101 2.707510 -27.939236 -5.523658 0.070243 -2.065308 
-0.073336 48.725544 3.472582 -1.211143 -1.054452 1.350413 0.000000 0.000000 0.000000 -4.338228 1.859894 -1.010135 4.219365 1.003410 -0.856953 5.908190 0.175587 -0.457485 -1.010320 10.185495 -3.344660 -5.782904 6.642789 -15.757248 0.189602 -4.184022 22.277895 1.071095 -5.918176 -3.446610 -1.432136 -9.104689 -3.439309 3.881771 -12.970579 -4.729592 -0.457105 3.857794 12.846333 2.588410 3.079702 -3.265485 7.814851 10.267323 10.994487 12.641436 -1.525661 -1.023072 -11.694758 -0.308957 2.757382 12.940565 -6.715182 -9.690189 0.649419 2.716681 -27.943605 -5.551499 0.097505 -2.149364 
